<svg id="logo"
   baseProfile="full"
   xmlns="http://www.w3.org/2000/svg"
   xmlns:xlink="http://www.w3.org/1999/xlink"
   viewBox="0 0 135 100"
   preserveAspectRatio="xMidYMid slice"
   overflow="visible">

	<style>
		path{stroke-width:1px;}
	</style>

  <defs>
    <path id="sine-curve" fill="none" vector-effect='non-scaling-stroke'
        d="M -6.544985,-0.258819
          C -6.457519,-0.174333 -6.370353,-0.087168 -6.283185,0.000000
          C -6.081330,0.201855 -5.879645,0.403537 -5.674080,0.572134
          C -5.507730,0.708567 -5.340209,0.822210 -5.168055,0.897968
          C -5.016988,0.964447 -4.866337,1.000000 -4.712389,1.000000
          C -4.558441,1.000000 -4.407790,0.964447 -4.256722,0.897968
          C -4.084568,0.822209 -3.917046,0.708566 -3.750695,0.572132
          C -3.545131,0.403536 -3.343447,0.201855 -3.141593,0.000000
          C -2.939738,-0.201855 -2.738053,-0.403537 -2.532489,-0.572133
          C -2.366139,-0.708567 -2.198618,-0.822209 -2.026464,-0.897968
          C -1.875396,-0.964447 -1.724745,-1.000000 -1.570796,-1.000000
          C -1.416861,-1.000000 -1.266222,-0.964453 -1.115166,-0.897984
          C -0.942986,-0.822220 -0.775441,-0.708560 -0.609067,-0.572102
          C -0.403515,-0.403513 -0.201843,-0.201843 0.000000,0.000000
          C 0.201843,0.201843 0.403515,0.403513 0.609067,0.572102
          C 0.775441,0.708560 0.942986,0.822220 1.115166,0.897984
          C 1.266222,0.964453 1.416861,1.000000 1.570796,1.000000
          C 1.724745,1.000000 1.875396,0.964447 2.026464,0.897968
          C 2.198618,0.822209 2.366139,0.708567 2.532489,0.572133
          C 2.738053,0.403537 2.939738,0.201855 3.141593,0.000000
          C 3.343447,-0.201855 3.545131,-0.403536 3.750695,-0.572132
          C 3.917046,-0.708566 4.084568,-0.822209 4.256722,-0.897968
          C 4.407790,-0.964447 4.558441,-1.000000 4.712389,-1.000000
          C 4.866337,-1.000000 5.016988,-0.964447 5.168055,-0.897968
          C 5.340209,-0.822210 5.507730,-0.708567 5.674080,-0.572134
          C 5.879645,-0.403537 6.081330,-0.201855 6.283185,0.000000
          C 6.370353,0.087168 6.457519,0.174333 6.544985,0.258819" />
  </defs>

  <g transform="translate(70,50)">
    <g transform="scale(-22.5,50)">
      <use xlink:href="#sine-curve" x="-0.9" y="0" stroke="hsl(0,100%,50%)"/>
      <use xlink:href="#sine-curve" x="-0.8" y="0" stroke="hsl(12,100%,50%)"/>
      <use xlink:href="#sine-curve" x="-0.7" y="0" stroke="hsl(24,100%,50%)"/>
      <use xlink:href="#sine-curve" x="-0.6" y="0" stroke="hsl(36,100%,50%)"/>
      <use xlink:href="#sine-curve" x="-0.5" y="0" stroke="hsl(48,100%,50%)"/>
      <use xlink:href="#sine-curve" x="-0.4" y="0" stroke="hsl(60,100%,50%)"/>
      <use xlink:href="#sine-curve" x="-0.3" y="0" stroke="hsl(72,100%,50%)"/>
      <use xlink:href="#sine-curve" x="-0.2" y="0" stroke="hsl(84,100%,50%)"/>
      <use xlink:href="#sine-curve" x="-0.1" y="0" stroke="hsl(96,100%,50%)"/>
      <use xlink:href="#sine-curve" x="+0.0" y="0" stroke="hsl(108,100%,50%)"/>
      <use xlink:href="#sine-curve" x="+0.1" y="0" stroke="hsl(120,100%,50%)"/>
      <use xlink:href="#sine-curve" x="+0.2" y="0" stroke="hsl(132,100%,50%)"/>
      <use xlink:href="#sine-curve" x="+0.3" y="0" stroke="hsl(144,100%,50%)"/>
      <use xlink:href="#sine-curve" x="+0.4" y="0" stroke="hsl(156,100%,50%)"/>
      <use xlink:href="#sine-curve" x="+0.5" y="0" stroke="hsl(168,100%,50%)"/>
      <use xlink:href="#sine-curve" x="+0.6" y="0" stroke="hsl(180,100%,50%)"/>
      <use xlink:href="#sine-curve" x="+0.7" y="0" stroke="hsl(192,100%,50%)"/>
      <use xlink:href="#sine-curve" x="+0.8" y="0" stroke="hsl(204,100%,50%)"/>
      <use xlink:href="#sine-curve" x="+0.9" y="0" stroke="hsl(216,100%,50%)"/>
      <use xlink:href="#sine-curve" x="+1.0" y="0" stroke="hsl(228,100%,50%)"/>
      <use xlink:href="#sine-curve" x="+1.1" y="0" stroke="hsl(240,100%,50%)"/>
      <use xlink:href="#sine-curve" x="+1.2" y="0" stroke="hsl(252,100%,50%)"/>
      <use xlink:href="#sine-curve" x="+1.3" y="0" stroke="hsl(264,100%,50%)"/>
      <use xlink:href="#sine-curve" x="+1.4" y="0" stroke="hsl(276,100%,50%)"/>
      <use xlink:href="#sine-curve" x="+1.5" y="0" stroke="hsl(288,100%,50%)"/>
      <use xlink:href="#sine-curve" x="+1.6" y="0" stroke="hsl(300,100%,50%)"/>
      <use xlink:href="#sine-curve" x="+1.7" y="0" stroke="hsl(312,100%,50%)"/>
      <use xlink:href="#sine-curve" x="+1.8" y="0" stroke="hsl(324,100%,50%)"/>
      <use xlink:href="#sine-curve" x="+1.9" y="0" stroke="hsl(336,100%,50%)"/>
      <use xlink:href="#sine-curve" x="+2.0" y="0" stroke="hsl(348,100%,50%)"/>
    </g>
  </g>
</svg>